<?xml version="1.0" encoding="utf-8"?>
<!-- Generator: Adobe Illustrator 25.2.1, SVG Export Plug-In . SVG Version: 6.00 Build 0)  -->
<svg version="1.1" id="Layer_1" xmlns="http://www.w3.org/2000/svg" xmlns:xlink="http://www.w3.org/1999/xlink" x="0px" y="0px"
	 viewBox="0 0 164.9 62.8" enable-background="new 0 0 164.9 62.8" xml:space="preserve">
<g>
	<path fill="#FFFFFF" d="M45.8,30.9c-0.1,0-0.1,0.1-0.2,0.1c-0.2,0-0.5-0.1-0.7-0.1H45.8z"/>
	<path fill="#FFFFFF" d="M105.4,51.3l-1.5-0.2l-1.6-4.8c0.7-0.2,1.5-0.5,2.2-0.8L105.4,51.3z"/>
	<path fill="#FFFFFF" d="M79.3,49.8l-0.8,5.4l-1.4-0.8l0-4.8C77.8,49.7,78.6,49.8,79.3,49.8z"/>
	<path fill="#FFFFFF" d="M64.7,47.2l-1.4,5.2l-1.3-0.9l0.6-5C63.2,46.8,63.9,47,64.7,47.2z"/>
	<path fill="#FFFFFF" d="M54.4,43l-3.3,5.4l-1-1.3l2.2-5.2C53,42.2,53.7,42.6,54.4,43z"/>
	<path fill="#FFFFFF" d="M92.2,54.9l-1.5-0.4l-1.1-5.2c0.8-0.1,1.5-0.2,2.3-0.3L92.2,54.9z"/>
	<path fill="#FFFFFF" d="M120.3,43.8l-1.5,0.4l-3.3-3.9c0.7-0.4,1.3-0.8,1.9-1.1L120.3,43.8z"/>
	<path fill="#FFFFFF" d="M93,36.2c0,1.2-0.9,2.2-2,2.2c-1.1,0-2-1-2-2.2c0,0,0,0,0,0c1.3,0,2.6-0.1,3.9-0.1C93,36.1,93,36.2,93,36.2
		z"/>
	<path fill="#FFFFFF" d="M100,35.6c-1.6,3.8-5.4,6.5-9.7,6.4c-3.8-0.1-6.9-2.4-8.2-5.8c1.2,0,2.3,0,3.4,0c0.9,2.1,2.8,3.5,5,3.6
		c2.5,0.1,4.7-1.5,5.9-3.9C97.6,35.8,98.8,35.7,100,35.6z"/>
	<path fill="#FFFFFF" d="M93,36.2c0,1.2-0.9,2.2-2,2.2c-1.1,0-2-1-2-2.2c0,0,0,0,0,0c1.3,0,2.6-0.1,3.9-0.1C93,36.1,93,36.2,93,36.2
		z"/>
	<path fill="#FFFFFF" d="M100,35.6c-1.6,3.8-5.4,6.5-9.7,6.4c-3.8-0.1-6.9-2.4-8.2-5.8c1.2,0,2.3,0,3.4,0c0.9,2.1,2.8,3.5,5,3.6
		c2.5,0.1,4.7-1.5,5.9-3.9C97.6,35.8,98.8,35.7,100,35.6z"/>
	<path fill="#FFFFFF" d="M44.9,30.9c0.2,0,0.5,0.1,0.7,0.1c0.1,0,0.1-0.1,0.2-0.1H44.9z"/>
	<path fill="#FFFFFF" d="M93,36.2c0,1.2-0.9,2.2-2,2.2c-1.1,0-2-1-2-2.2c0,0,0,0,0,0c1.3,0,2.6-0.1,3.9-0.1C93,36.1,93,36.2,93,36.2
		z"/>
	<path fill="#FFFFFF" d="M100,35.6c-1.6,3.8-5.4,6.5-9.7,6.4c-3.8-0.1-6.9-2.4-8.2-5.8c1.2,0,2.3,0,3.4,0c0.9,2.1,2.8,3.5,5,3.6
		c2.5,0.1,4.7-1.5,5.9-3.9C97.6,35.8,98.8,35.7,100,35.6z"/>
	<path fill="#FFFFFF" d="M64.7,23.3c-0.4,0.2-0.9,0.3-1.3,0.5l0-0.1C63.8,23.5,64.3,23.4,64.7,23.3z"/>
	<path fill="#FFFFFF" d="M64.7,23.3c-0.4,0.2-0.9,0.3-1.3,0.5l0-0.1C63.8,23.5,64.3,23.4,64.7,23.3z"/>
	<path fill="#FFFFFF" d="M150.8,30.3c-0.1,0-0.1-0.1-0.2-0.1L150.8,30.3c-0.6-0.4-11.2-7.8-11.2-7.8l-0.5,1l7.9,5.4l-22.9,0.4
		c-2.1-1.3-3-1.3-5.1-2.4c-2-0.6-4-1.2-5.9-1.9c-0.7-0.3-1.4-0.5-2.2-0.7l0.4,0l1.4-7.3l-1.8,0.2l-2.4,6.5c-4.2-1.2-8.6-2-13-2.5
		c0-0.6,0.2-1,0.3-1.4c0,0,0-0.1,0-0.1l0.2-4.4c0-0.1,0-0.2,0-0.3c0-0.1,0-0.3,0-0.4v0l-1.9-0.2l-0.7,6.8l0.5,0.1L93.6,21
		c-4-0.4-7.7-0.5-11.8-0.4c-0.1-0.6-0.1-1.2-0.1-1.7c0-1.3,0.2-2.6,0.2-3.9l-0.3-2L80,13.7l0,7c-1.3,0.1-2.6,0.2-3.9,0.3
		c-3.1,0.3-6.2,0.8-9.1,1.6c-0.3,0.1-0.6,0.2-0.8,0.2L64,15.8l-1.5,1l0.9,6.9c0.4-0.1,0.9-0.2,1.3-0.3c-0.4,0.2-0.9,0.3-1.3,0.5
		l0-0.1c-4.1,1.1-7.6,2.4-10.4,3.6c-0.1,0-0.2,0.1-0.3,0.1l0-0.1h0l0.8-1.1l-4.2-6.2l-1.1,1.4l2.9,6.3c-0.2,0-0.3,0.1-0.5,0.2
		c-2,0.7-3.9,1.4-5.9,2h0L35.4,30c-3.3-2.7-9.3-8-9.3-8l-0.5,1.2l7.6,6.8l-4.5,0c-3.1-2.6-9.6-8.3-9.6-8.3l-0.5,1.2l7.9,7.1l-4.2,0
		c0,0,0,0,0,0c-2.8-2-10.2-7.7-10.2-7.7l-0.5,1.1l8.5,6.6l-5.4,0.1c0.4,0.5,0.7,1.1,1,1.6c0.2,0.3,0.2,0.5,0.3,0.8
		c1.5,0,3-0.1,4.6-0.1l-9,8.1l0.5,1.2c0,0,8.9-7.8,11-9.4c1.2,0,2.4-0.1,3.5-0.1l-9.3,8.1l0.5,1.2c0,0,10.5-8.9,11.3-9.4
		c0,0,0,0,0,0c0.9,0,1.9,0,2.8-0.1l-8.1,5.4l0.5,0.9c0,0,6.9-4.5,9.9-6.3h0c2.9-0.1,5.6-0.2,8-0.2c0.8,0.7,1.6,1.3,2.4,1.9
		c34,25.4,66.2,7.1,76.4,0c1.2-0.8,2.1-1.5,2.6-1.9c0.6,0,1.3,0,1.9,0.1c1.3,0.1,2.5,0.2,3.8,0.2c0.5,0,0.9,0,1.4,0
		c3.3-0.3,6.7,0,10,0c2.3,0,4.6-0.1,6.9-0.3l-8.6,6.2l0.5,1c0,0,8.4-5.9,10.8-7.4c0.2,0,0.5-0.1,0.7-0.1c0-0.3,0-0.6,0.1-0.9
		C151,30.5,150.9,30.4,150.8,30.3z M116.8,33.8c-9.7,6.3-38,20.8-67.9,0c-0.9-0.6-1.8-1.3-2.8-2c-0.3-0.2-0.6-0.4-0.8-0.7
		c0,0,0.1-0.1,0.3-0.2c-0.2,0-0.5-0.1-0.7-0.1h0.9c-0.1,0-0.1,0.1-0.2,0.1c1.5,0.3,3,0.5,4.5,0.7h0c0,0,0,0,0,0s0,0,0,0
		c6.3,1,12.5,1.7,18.6,2.1c11.1,0.8,22,0.8,32.7,0c6.3-0.5,12.6-1.3,18.7-2.3C119.6,31.9,118.5,32.7,116.8,33.8z"/>
	<path fill="#FFFFFF" d="M45.8,30.9c-0.1,0-0.1,0.1-0.2,0.1c-0.2,0-0.5-0.1-0.7-0.1H45.8z"/>
	<path fill="#FFFFFF" d="M53,27.3c-0.1,0-0.2,0.1-0.3,0.1l0-0.1h0C52.8,27.3,52.9,27.3,53,27.3z"/>
	<polygon fill="#FFFFFF" points="94,21 93.9,21.2 93.9,21 	"/>
	<g>
		<path fill="#FFFFFF" d="M100,35.6c-1.6,3.8-5.4,6.5-9.7,6.4c-3.8-0.1-6.9-2.4-8.2-5.8c1.2,0,2.3,0,3.4,0c0.9,2.1,2.8,3.5,5,3.6
			c2.5,0.1,4.7-1.5,5.9-3.9C97.6,35.8,98.8,35.7,100,35.6z"/>
		<path fill="#FFFFFF" d="M93,36.2c0,1.2-0.9,2.2-2,2.2c-1.1,0-2-1-2-2.2c0,0,0,0,0,0c1.3,0,2.6-0.1,3.9-0.1
			C93,36.1,93,36.2,93,36.2z"/>
	</g>
</g>
<g>
	<path fill="#FFFFFF" d="M65.5,25.4C65.5,25.4,65.5,25.4,65.5,25.4"/>
</g>
<g>
</g>
<g>
</g>
<g>
</g>
<g>
</g>
<g>
</g>
</svg>
